<svg width="416" height="66" viewBox="0 0 416 66" fill="none" xmlns="http://www.w3.org/2000/svg">
    <rect y="7.11664" width="160" height="45.75" fill="#307618"/>
    <rect x="7" width="145" height="61" fill="#307618"/>
    <path d="M22.4 51V45H16.4V39H10.4V21H16.4V15H22.4V9H46.4V15H52.4V21H40.4V15H28.4V21H22.4V39H28.4V45H40.4V39H52.4V45H46.4V51H22.4ZM62 51V9H74V45H98V51H62ZM107.6 51V45H119.6V15H107.6V9H143.6V15H131.6V45H143.6V51H107.6Z" fill="white"/>
    <path d="M22.4 51H20.4V53H22.4V51ZM22.4 45H24.4V43H22.4V45ZM16.4 45H14.4V47H16.4V45ZM16.4 39H18.4V37H16.4V39ZM10.4 39H8.39997V41H10.4V39ZM10.4 21V19H8.39997V21H10.4ZM16.4 21V23H18.4V21H16.4ZM16.4 15V13H14.4V15H16.4ZM22.4 15V17H24.4V15H22.4ZM22.4 9V7H20.4V9H22.4ZM46.4 9H48.4V7H46.4V9ZM46.4 15H44.4V17H46.4V15ZM52.4 15H54.4V13H52.4V15ZM52.4 21V23H54.4V21H52.4ZM40.4 21H38.4V23H40.4V21ZM40.4 15H42.4V13H40.4V15ZM28.4 15V13H26.4V15H28.4ZM28.4 21V23H30.4V21H28.4ZM22.4 21V19H20.4V21H22.4ZM22.4 39H20.4V41H22.4V39ZM28.4 39H30.4V37H28.4V39ZM28.4 45H26.4V47H28.4V45ZM40.4 45V47H42.4V45H40.4ZM40.4 39V37H38.4V39H40.4ZM52.4 39H54.4V37H52.4V39ZM52.4 45V47H54.4V45H52.4ZM46.4 45V43H44.4V45H46.4ZM46.4 51V53H48.4V51H46.4ZM24.4 51V45H20.4V51H24.4ZM22.4 43H16.4V47H22.4V43ZM18.4 45V39H14.4V45H18.4ZM16.4 37H10.4V41H16.4V37ZM12.4 39V21H8.39997V39H12.4ZM10.4 23H16.4V19H10.4V23ZM18.4 21V15H14.4V21H18.4ZM16.4 17H22.4V13H16.4V17ZM24.4 15V9H20.4V15H24.4ZM22.4 11H46.4V7H22.4V11ZM44.4 9V15H48.4V9H44.4ZM46.4 17H52.4V13H46.4V17ZM50.4 15V21H54.4V15H50.4ZM52.4 19H40.4V23H52.4V19ZM42.4 21V15H38.4V21H42.4ZM40.4 13H28.4V17H40.4V13ZM26.4 15V21H30.4V15H26.4ZM28.4 19H22.4V23H28.4V19ZM20.4 21V39H24.4V21H20.4ZM22.4 41H28.4V37H22.4V41ZM26.4 39V45H30.4V39H26.4ZM28.4 47H40.4V43H28.4V47ZM42.4 45V39H38.4V45H42.4ZM40.4 41H52.4V37H40.4V41ZM50.4 39V45H54.4V39H50.4ZM52.4 43H46.4V47H52.4V43ZM44.4 45V51H48.4V45H44.4ZM46.4 49H22.4V53H46.4V49ZM62 51H60V53H62V51ZM62 9V7H60V9H62ZM74 9H76V7H74V9ZM74 45H72V47H74V45ZM98 45H100V43H98V45ZM98 51V53H100V51H98ZM64 51V9H60V51H64ZM62 11H74V7H62V11ZM72 9V45H76V9H72ZM74 47H98V43H74V47ZM96 45V51H100V45H96ZM98 49H62V53H98V49ZM107.6 51H105.6V53H107.6V51ZM107.6 45V43H105.6V45H107.6ZM119.6 45V47H121.6V45H119.6ZM119.6 15H121.6V13H119.6V15ZM107.6 15H105.6V17H107.6V15ZM107.6 9V7H105.6V9H107.6ZM143.6 9H145.6V7H143.6V9ZM143.6 15V17H145.6V15H143.6ZM131.6 15V13H129.6V15H131.6ZM131.6 45H129.6V47H131.6V45ZM143.6 45H145.6V43H143.6V45ZM143.6 51V53H145.6V51H143.6ZM109.6 51V45H105.6V51H109.6ZM107.6 47H119.6V43H107.6V47ZM121.6 45V15H117.6V45H121.6ZM119.6 13H107.6V17H119.6V13ZM109.6 15V9H105.6V15H109.6ZM107.6 11H143.6V7H107.6V11ZM141.6 9V15H145.6V9H141.6ZM143.6 13H131.6V17H143.6V13ZM129.6 15V45H133.6V15H129.6ZM131.6 47H143.6V43H131.6V47ZM141.6 45V51H145.6V45H141.6ZM143.6 49H107.6V53H143.6V49Z" fill="#212C8E"/>
    <path d="M184 57V9H168V1H216V9H200V57H184ZM231.68 57V49H223.68V17H239.68V49H263.68V17H279.68V57H231.68ZM295.36 57V49H287.36V1H303.36V17H335.36V25H343.36V49H335.36V57H295.36ZM303.36 49H327.36V25H303.36V49ZM359.04 57V49H351.04V25H359.04V17H399.04V25H407.04V41H367.04V49H399.04V57H359.04ZM367.04 33H391.04V25H367.04V33Z" fill="white"/>
    <path d="M184 57H181V60H184V57ZM184 9H187V6H184V9ZM168 9H165V12H168V9ZM168 1V-2H165V1H168ZM216 1H219V-2H216V1ZM216 9V12H219V9H216ZM200 9V6H197V9H200ZM200 57V60H203V57H200ZM187 57V9H181V57H187ZM184 6H168V12H184V6ZM171 9V1H165V9H171ZM168 4H216V-2H168V4ZM213 1V9H219V1H213ZM216 6H200V12H216V6ZM197 9V57H203V9H197ZM200 54H184V60H200V54ZM231.68 57H228.68V60H231.68V57ZM231.68 49H234.68V46H231.68V49ZM223.68 49H220.68V52H223.68V49ZM223.68 17V14H220.68V17H223.68ZM239.68 17H242.68V14H239.68V17ZM239.68 49H236.68V52H239.68V49ZM263.68 49V52H266.68V49H263.68ZM263.68 17V14H260.68V17H263.68ZM279.68 17H282.68V14H279.68V17ZM279.68 57V60H282.68V57H279.68ZM234.68 57V49H228.68V57H234.68ZM231.68 46H223.68V52H231.68V46ZM226.68 49V17H220.68V49H226.68ZM223.68 20H239.68V14H223.68V20ZM236.68 17V49H242.68V17H236.68ZM239.68 52H263.68V46H239.68V52ZM266.68 49V17H260.68V49H266.68ZM263.68 20H279.68V14H263.68V20ZM276.68 17V57H282.68V17H276.68ZM279.68 54H231.68V60H279.68V54ZM295.36 57H292.36V60H295.36V57ZM295.36 49H298.36V46H295.36V49ZM287.36 49H284.36V52H287.36V49ZM287.36 1V-2H284.36V1H287.36ZM303.36 1H306.36V-2H303.36V1ZM303.36 17H300.36V20H303.36V17ZM335.36 17H338.36V14H335.36V17ZM335.36 25H332.36V28H335.36V25ZM343.36 25H346.36V22H343.36V25ZM343.36 49V52H346.36V49H343.36ZM335.36 49V46H332.36V49H335.36ZM335.36 57V60H338.36V57H335.36ZM303.36 49H300.36V52H303.36V49ZM327.36 49V52H330.36V49H327.36ZM327.36 25H330.36V22H327.36V25ZM303.36 25V22H300.36V25H303.36ZM298.36 57V49H292.36V57H298.36ZM295.36 46H287.36V52H295.36V46ZM290.36 49V1H284.36V49H290.36ZM287.36 4H303.36V-2H287.36V4ZM300.36 1V17H306.36V1H300.36ZM303.36 20H335.36V14H303.36V20ZM332.36 17V25H338.36V17H332.36ZM335.36 28H343.36V22H335.36V28ZM340.36 25V49H346.36V25H340.36ZM343.36 46H335.36V52H343.36V46ZM332.36 49V57H338.36V49H332.36ZM335.36 54H295.36V60H335.36V54ZM303.36 52H327.36V46H303.36V52ZM330.36 49V25H324.36V49H330.36ZM327.36 22H303.36V28H327.36V22ZM300.36 25V49H306.36V25H300.36ZM359.04 57H356.04V60H359.04V57ZM359.04 49H362.04V46H359.04V49ZM351.04 49H348.04V52H351.04V49ZM351.04 25V22H348.04V25H351.04ZM359.04 25V28H362.04V25H359.04ZM359.04 17V14H356.04V17H359.04ZM399.04 17H402.04V14H399.04V17ZM399.04 25H396.04V28H399.04V25ZM407.04 25H410.04V22H407.04V25ZM407.04 41V44H410.04V41H407.04ZM367.04 41V38H364.04V41H367.04ZM367.04 49H364.04V52H367.04V49ZM399.04 49H402.04V46H399.04V49ZM399.04 57V60H402.04V57H399.04ZM367.04 33H364.04V36H367.04V33ZM391.04 33V36H394.04V33H391.04ZM391.04 25H394.04V22H391.04V25ZM367.04 25V22H364.04V25H367.04ZM362.04 57V49H356.04V57H362.04ZM359.04 46H351.04V52H359.04V46ZM354.04 49V25H348.04V49H354.04ZM351.04 28H359.04V22H351.04V28ZM362.04 25V17H356.04V25H362.04ZM359.04 20H399.04V14H359.04V20ZM396.04 17V25H402.04V17H396.04ZM399.04 28H407.04V22H399.04V28ZM404.04 25V41H410.04V25H404.04ZM407.04 38H367.04V44H407.04V38ZM364.04 41V49H370.04V41H364.04ZM367.04 52H399.04V46H367.04V52ZM396.04 49V57H402.04V49H396.04ZM399.04 54H359.04V60H399.04V54ZM367.04 36H391.04V30H367.04V36ZM394.04 33V25H388.04V33H394.04ZM391.04 22H367.04V28H391.04V22ZM364.04 25V33H370.04V25H364.04Z" fill="black"/>
</svg>
